<?xml version="1.0" encoding="iso-8859-1"?>
<!-- Generator: Adobe Illustrator 16.0.0, SVG Export Plug-In . SVG Version: 6.00 Build 0)  -->
<!DOCTYPE svg PUBLIC "-//W3C//DTD SVG 1.1//EN" "http://www.w3.org/Graphics/SVG/1.1/DTD/svg11.dtd">
<svg version="1.1" id="Capa_1" xmlns="http://www.w3.org/2000/svg" xmlns:xlink="http://www.w3.org/1999/xlink" x="0px" y="0px"
	 width="564.252px" height="564.253px" viewBox="0 0 564.252 564.253" style="enable-background:new 0 0 564.252 564.253;"
	 xml:space="preserve">
<g>
	<g>
		<path fill="aqua" d="M236.759,243.038c2.071-1.472,4.061-3.038,5.683-4.926c21.234-24.76,49.402-33.647,80.546-36.617
			c19.706-1.882,39.377-4.359,58.983-7.131c20.599-2.917,46.771-27.328,51.565-47.33c3.008-12.549-0.166-23.72-9.925-31.673
			c-7.217-5.885-15.675-10.988-24.411-14.115c-28.396-10.152-57.624-14.363-87.615-7.95c-4.746,1.02-9.315,2.471-13.643,4.67
			c-7.116,3.611-3.546,9.658,6.384,11.062c7.82,1.108,15.641,2.217,23.46,3.337c10.781,1.543,21.675,2.565,32.291,4.853
			c13.73,2.961,23.234,15.315,23.654,29.164c0.325,10.813-5.195,19.547-15.941,22.334c-30.145,7.813-59.722,6.644-87.769-8.246
			c-9.277-4.926-16.5-11.597-21.479-20.59c-4.862-8.771-10.131-12.173-15.028-6.186c-3.083,3.765-5.938,7.329-8.633,11.021
			c-4.247,5.837-6.463,12.359-5.979,19.993c0.75,11.777-3.074,22.594-8.68,32.879c-8.05,14.768-9.005,25.582-1.912,36.502
			C223.77,242.489,233.363,245.447,236.759,243.038z"/>
		<path fill="orangered" d="M129.464,320.928c2.361,2.926,4.793,5.846,6.714,9.056c4.611,7.736,4.569,13.901,0.29,18.736
			c-5.048,5.71-14.109,8.104-21.196,5.32c-1.823-0.71-3.573-1.603-5.618-2.684c-3.044-1.614-4.702,5.189-3.656,15.167
			c0.653,6.247,1.404,12.288,2.598,18.234c1.998,10.001,8.653,12.731,17.268,7.358c7.503-4.675,14.889-10.054,20.959-16.432
			c20.664-21.71,40.261-44.384,54.885-70.781c7.477-13.5,13.243-27.662,10.763-43.604c-0.721-4.619-1.882-9.581-4.324-13.444
			c-9.756-15.421-9.478-31.454-4.188-48.019c1.084-3.39,2.222-6.762,3.384-10.152c1.918-5.591-0.739-11.269-5.521-9.714
			c-2.832,0.919-5.367,2.577-7.723,4.708c-8.491,7.698-12.758,17.493-13.675,28.812c-0.762,9.484-1.463,18.974-2.104,28.473
			c-0.52,7.716-2.216,10.663-10.001,11.597c-16.709,1.995-32.881-0.183-46.955-10.332c-10.332-7.459-12.049-15.235-7.409-27.021
			c2.143-5.441,4.191-10.917,6.218-16.444c3.345-9.114-1.641-13.284-8.996-6.469c-14.053,13.012-17.49,30.922-15.895,51.542
			C97.566,274.416,111.38,298.562,129.464,320.928z"/>
		<path fill="beige" d="M402.606,214.912c15.179,1.271,30.216,4.164,45.318,6.312c1.43,0.207,2.854,0.399,4.409,0.606
			c2.43,0.325,0.426-7.075-8.14-12.289c-5.414-3.298-11.597-5.015-18.382-5.656c-21.309-2.016-42.345,0.496-63.28,4.182
			c-12.289,2.166-24.565,4.412-36.76,7.019c-30.505,6.532-55.263,22.736-76.792,44.931c-25.452,26.238-46.914,55.242-64.126,87.456
			c-3.263,6.112-7.143,11.893-10.63,17.88c-19.44,33.426-49.254,50.922-86.927,55.077c-23.418,2.583-47.041,3.31-70.574,4.899
			c-4.744,0.319-9.508,0.633-14.21,1.295c-0.623,0.095-1.2,0.55-1.755,1.105c-0.831,0.815-1.004,2.151-0.387,2.984
			c0.405,0.562,0.839,1.047,1.372,1.229c49.795,17.655,100.19,27.55,152.459,11.159c5.854-1.838,11.526-4.231,17.307-6.289
			c9.69-3.445,19.411-3.563,29.107-0.035c5.766,2.104,11.582,4.103,17.212,6.537c4.62,2.004,7.767,0.077,10.217-3.315
			c2.542-3.517-0.213-6.011-2.639-8.039c-7.155-5.97-14.053-12.365-21.79-17.478c-9.9-6.549-12.563-15.854-10.754-26.303
			c1.809-10.457,4.643-20.889,8.402-30.808c10.101-26.64,27.955-48.628,44.212-71.573c13.843-19.532,31.342-34.855,52.848-45.02
			C331.275,225.209,365.049,211.765,402.606,214.912z"/>
		<path fill="blueviolet" d="M405.863,414.897c-15.433-20.594-27.615-43.014-31.918-68.914c-4.291-25.836,1.229-49.627,15.279-71.503
			c4.256-6.62,8.659-13.157,13.205-19.851c5.627-8.298,9.073-14.797,7.695-14.532c-0.945,0.187-1.726,0.352-2.453,0.636
			c-9.209,3.564-18.755,6.487-27.49,10.979c-16.042,8.237-24.772,22.254-28.419,39.667c-2.353,11.236-4.434,22.549-7.306,33.656
			c-2.046,7.92-5.297,15.214-9.652,22.064c-5.385,8.458-15.812,7.365-18.329-2.341c-2.276-8.789-2.726-17.868-2.991-27.036
			c-0.284-10.019-6.076-11.815-10.119-2.642c-8.647,19.659-5.539,39.986,9.085,59.545c13.01,17.39,29.606,30.86,47.605,42.646
			c28.667,18.785,57.512,37.304,86.355,55.816c0.769,0.49,1.721,0.703,2.719,0.839c1.566,0.213,2.814-0.029,2.784-0.538
			c-0.029-0.508-5.147-7.252-11.496-15.025C428.732,444.014,416.963,429.703,405.863,414.897z"/>
		<path fill="cornflowerblue" d="M539.329,313.273c-4.823-17.508-7.454-35.601-11.071-53.434c-0.184-0.884-0.42-1.762-0.763-3.015
			c-0.461-1.658-3.47,4.685-6.082,14.369c-2.512,9.321-4.155,18.389-3.777,28.153c0.816,21.521-0.703,43.189-2.364,64.711
			c-0.556,7.211-4.314,14.257-7.093,21.178c-3.31,8.24-7.938,16.019-10.574,24.441c-4.912,15.734,3.919,27.249,18.938,35.323
			c11.78,6.33,26.504,1.495,35.068-10.221c12.714-17.389,16.23-35.849,8.754-56.619
			C552.663,356.771,545.351,335.179,539.329,313.273z"/>
		<path fill="yellowgreen" d="M510.962,244.141c0.277-1.173,0.201-2.432,0.035-3.712c-0.26-2.039-2.204-3.638-4.314-3.564
			c-1.407,0.05-2.73,0.212-3.647,0.907c-15.096,11.446-21.598,27.26-22.13,45.808c-0.101,3.55,0.337,7.126,0.615,10.685
			c0.603,7.695-2.399,13.305-10.072,13.907c-9.912,0.769-20.144,0.284-29.943-1.389c-7.431-1.265-11.468-8.115-12.419-15.256
			c-1.478-11.145-1.809-22.443-2.571-33.677c-0.071-1.061-0.071-2.131-0.053-3.331c0.023-1.841-6.904,1.253-12.809,9.363
			c-10.314,14.165-16.166,33.981-13.004,48.013c2.742,12.183,10.94,19.529,22.691,21.669c16.929,3.086,34.111,4.717,51.134,7.317
			c6.413,0.981,12.844,2.418,18.95,4.558c7.944,2.79,12.011,1.224,12.584-7.294c0.626-9.25-0.101-18.602-0.236-27.904
			c-0.219-15.02-1.088-30.062-0.373-45.037C505.731,258.117,509.295,251.216,510.962,244.141z"/>
		<path d="M523.73,196.535c2.719-7.37-4.227-9.424-11.03-3.776c-4.179,3.469-8.311,6.779-12.643,9.806
			c-6.349,4.43-13.341,9.183-20.67,10.634c-7.223,1.43-10.651,4.123-13.128,10.672c-2.636,6.96-6.874,13.299-10.048,20.076
			c-5.196,11.112-2.708,25.301,4.822,35.749c5.864,8.133,13.908,6.2,14.139-0.417c0.143-4.04,0.343-8.021,0.792-11.975
			c1.591-13.985,7.625-26.043,17.449-36.138c7.453-7.658,15.149-15.091,22.508-22.837
			C519.267,204.805,522.069,201.027,523.73,196.535z"/>
		<path d="M441.883,188.68c10.894,10.169,25.724,13.133,41.287,7.518c14.487-5.236,29.938-15.01,40.932-30.511
			c5.805-8.178,6.508-15.12,3.795-14.166c-1.696,0.6-3.305,1.165-4.9,1.726c-12.791,4.504-18.205,2.633-25.245-8.964
			c-2.033-3.354-4.155-6.572-7.045-9.2c-4.759-4.314-9.321-3.57-8.246-1.421c0.697,1.386,1.33,2.633,1.998,3.866
			c5.355,9.975,5.184,20.114,0.922,30.36c-3.398,8.16-8.145,11.828-16.929,11.136c-9.835-0.774-19.576-2.728-29.37-4.131
			c-1.253-0.184-2.506-0.322-3.872-0.461C433.071,174.208,434.554,181.841,441.883,188.68z"/>
		<path d="M502.386,377.99c3.274-9.741-0.095-16.981-9.499-21.51c-3.901-1.873-8.021-3.464-12.212-4.557
			c-7.146-1.868-14.321-3.647-21.497-5.402c-9.741-2.388-17.886-4.025-18.188-3.677c-0.308,0.349,2.146,3.334,5.515,6.62
			c2.039,1.991,4.126,3.925,6.378,5.639c3.747,2.843,8.169,4.864,12.466,6.886c8.346,3.919,15.202,9.127,20.191,15.965
			c5.916,8.098,7.896,16.45,8.357,16.51c0.467,0.053,2.678-3.553,4.906-8.074C500.152,383.635,501.417,380.862,502.386,377.99z"/>
		<path d="M459.905,173.699c7.655,1.108,13.193-3.31,17.769-8.801c0.81-0.967,0.667-3.334,0.13-4.732
			c-2.962-7.693-6.939-14.679-12.011-21.149c-6.194-7.894-10.521-5.065-10.616,4.957c0,0.346-0.012,0.697-0.023,1.043
			c-0.432,10.016-6.886,20.312-3.452,24.287C453.646,171.551,456.264,173.173,459.905,173.699z"/>
	</g>
</g>
<g>
</g>
<g>
</g>
<g>
</g>
<g>
</g>
<g>
</g>
<g>
</g>
<g>
</g>
<g>
</g>
<g>
</g>
<g>
</g>
<g>
</g>
<g>
</g>
<g>
</g>
<g>
</g>
<g>
</g>
</svg>
